<?xml version="1.0" encoding="UTF-8" standalone="no"?>
<!-- Created with Inkscape (http://www.inkscape.org/) -->

<svg
   xmlns:dc="http://purl.org/dc/elements/1.1/"
   xmlns:cc="http://creativecommons.org/ns#"
   xmlns:rdf="http://www.w3.org/1999/02/22-rdf-syntax-ns#"
   xmlns:svg="http://www.w3.org/2000/svg"
   xmlns="http://www.w3.org/2000/svg"
   xmlns:sodipodi="http://sodipodi.sourceforge.net/DTD/sodipodi-0.dtd"
   xmlns:inkscape="http://www.inkscape.org/namespaces/inkscape"
   width="27.718943mm"
   height="27.700975mm"
   viewBox="0 0 27.718943 27.700975"
   version="1.1"
   id="svg136"
   inkscape:version="0.92.3 (2405546, 2018-03-11)"
   sodipodi:docname="ducg.svg">
  <defs
     id="defs130" />
  <sodipodi:namedview
     id="base"
     pagecolor="#ffffff"
     bordercolor="#666666"
     borderopacity="1.0"
     inkscape:pageopacity="0.0"
     inkscape:pageshadow="2"
     inkscape:zoom="1.979899"
     inkscape:cx="-70.967602"
     inkscape:cy="-173.521"
     inkscape:document-units="mm"
     inkscape:current-layer="layer1"
     showgrid="false"
     inkscape:window-width="2560"
     inkscape:window-height="1377"
     inkscape:window-x="-8"
     inkscape:window-y="-8"
     inkscape:window-maximized="1" />
  <metadata
     id="metadata133">
    <rdf:RDF>
      <cc:Work
         rdf:about="">
        <dc:format>image/svg+xml</dc:format>
        <dc:type
           rdf:resource="http://purl.org/dc/dcmitype/StillImage" />
        <dc:title></dc:title>
      </cc:Work>
    </rdf:RDF>
  </metadata>
  <g
     inkscape:label="Layer 1"
     inkscape:groupmode="layer"
     id="layer1"
     transform="translate(-25.559703,-68.482668)">
    <g
       id="g160"
       transform="translate(-44.500377,-37.985681)">
      <path
         style="fill:#a5c40f;stroke-width:0.26458335"
         d="m 81.643851,133.93688 c -0.643903,-0.12633 -1.745231,-0.42051 -2.447396,-0.65373 -1.042992,-0.34643 -1.276664,-0.53776 -1.276664,-1.04534 0,-0.67782 0.628167,-1.45284 1.177551,-1.45284 0.190302,0 1.031002,0.3136 1.868223,0.69689 1.325486,0.60683 1.748508,0.67696 3.273118,0.54264 2.848259,-0.25096 4.400282,-0.848 5.840881,-2.24691 1.082468,-1.05114 1.327292,-1.47977 1.596171,-2.79449 0.554488,-2.71125 -0.143146,-4.89872 -1.913422,-5.99965 -0.703483,-0.4375 -1.130351,-0.50684 -2.317522,-0.37646 -1.353788,0.14867 -1.505535,0.10724 -2.177311,-0.59453 -1.383829,-1.4456 -2.352545,-5.71978 -2.294232,-10.12263 0.03804,-2.87226 0.200675,-3.29594 1.305884,-3.402 1.405849,-0.1349 3.909257,0.44347 5.811492,1.34266 2.045598,0.96695 5.05941,3.86373 6.14738,5.90866 1.505,2.82878 1.979001,7.20386 1.103426,10.18478 -2.027854,6.90387 -8.97102,11.33268 -15.697579,10.01295 z m -7.46141,-3.86656 c -2.093021,-1.9964 -3.556043,-4.89924 -3.989167,-7.91505 -0.828936,-5.77181 2.276836,-11.66924 7.489816,-14.22211 1.076071,-0.52697 2.254149,-0.98847 2.617951,-1.02555 l 0.661458,-0.0674 0.05524,3.73491 c 0.08362,5.65401 0.916144,8.77885 3.101357,11.64073 1.038334,1.35987 1.215232,2.51554 0.574663,3.75427 -0.743111,1.43702 -1.377652,1.76152 -3.75388,1.9197 -2.538552,0.16899 -3.247832,0.60976 -4.126737,2.56445 -0.278084,0.61847 -0.627938,1.12448 -0.777452,1.12448 -0.149514,0 -0.983474,-0.67878 -1.853244,-1.5084 z"
         id="path164"
         inkscape:connector-curvature="0" />
      <path
         style="fill:#59595b;stroke-width:0.26458335"
         d="m 81.643851,133.93688 c -0.643903,-0.12633 -1.745231,-0.42051 -2.447396,-0.65373 -1.042992,-0.34643 -1.276664,-0.53776 -1.276664,-1.04534 0,-0.67782 0.628167,-1.45284 1.177551,-1.45284 0.190302,0 1.031002,0.3136 1.868223,0.69689 1.325486,0.60683 1.748508,0.67696 3.273118,0.54264 2.848259,-0.25096 4.400282,-0.848 5.840881,-2.24691 1.082468,-1.05114 1.327292,-1.47977 1.596171,-2.79449 0.554488,-2.71125 -0.143146,-4.89872 -1.913422,-5.99965 -0.703483,-0.4375 -1.130351,-0.50684 -2.317522,-0.37646 -1.353788,0.14867 -1.505535,0.10724 -2.177311,-0.59453 -1.383829,-1.4456 -2.352545,-5.71978 -2.294232,-10.12263 0.03804,-2.87226 0.200675,-3.29594 1.305884,-3.402 1.405849,-0.1349 3.909257,0.44347 5.811492,1.34266 2.045598,0.96695 5.05941,3.86373 6.14738,5.90866 1.505,2.82878 1.979001,7.20386 1.103426,10.18478 -2.027854,6.90387 -8.97102,11.33268 -15.697579,10.01295 z"
         id="path162"
         inkscape:connector-curvature="0" />
    </g>
  </g>
</svg>
