<?xml version="1.0" encoding="UTF-8" standalone="no"?>
<!-- Generator: Adobe Illustrator 21.0.2, SVG Export Plug-In . SVG Version: 6.00 Build 0)  -->

<svg
   xmlns:dc="http://purl.org/dc/elements/1.1/"
   xmlns:cc="http://creativecommons.org/ns#"
   xmlns:rdf="http://www.w3.org/1999/02/22-rdf-syntax-ns#"
   xmlns:svg="http://www.w3.org/2000/svg"
   xmlns="http://www.w3.org/2000/svg"
   xmlns:sodipodi="http://sodipodi.sourceforge.net/DTD/sodipodi-0.dtd"
   xmlns:inkscape="http://www.inkscape.org/namespaces/inkscape"
   version="1.1"
   id="Layer_1"
   x="0px"
   y="0px"
   viewBox="0 0 96.499996 150.27472"
   xml:space="preserve"
   sodipodi:docname="iknl.svg"
   inkscape:version="0.92.3 (2405546, 2018-03-11)"
   width="96.5"
   height="150.27472"><metadata
   id="metadata257"><rdf:RDF><cc:Work
       rdf:about=""><dc:format>image/svg+xml</dc:format><dc:type
         rdf:resource="http://purl.org/dc/dcmitype/StillImage" /><dc:title></dc:title></cc:Work></rdf:RDF></metadata><defs
   id="defs255" /><sodipodi:namedview
   pagecolor="#ffffff"
   bordercolor="#666666"
   borderopacity="1"
   objecttolerance="10"
   gridtolerance="10"
   guidetolerance="10"
   inkscape:pageopacity="0"
   inkscape:pageshadow="2"
   inkscape:window-width="2560"
   inkscape:window-height="1377"
   id="namedview253"
   showgrid="false"
   inkscape:zoom="3.5561826"
   inkscape:cx="199.51169"
   inkscape:cy="74.97472"
   inkscape:window-x="-8"
   inkscape:window-y="-8"
   inkscape:window-maximized="1"
   inkscape:current-layer="Layer_1"
   fit-margin-top="0"
   fit-margin-left="0"
   fit-margin-right="0"
   fit-margin-bottom="0" />
<style
   type="text/css"
   id="style176">
	.st0{fill:#00BFEC;}
	.st1{fill:#017F9C;}
</style>
<g
   id="g250"
   transform="translate(0,-38.1)">
	
	<path
   class="st1"
   d="M 44.4,90.5 H 13.6 L 0,187.5 h 31.4 l 5.8,-45.2 c 0,0 6.3,53.5 52.5,45.2 0,0 2.5,-37.2 -28.4,-45.2 0,0 23.2,-16.9 35.2,-51.8 0,0 -36.7,-13.6 -57.8,42.8 z"
   id="path242"
   inkscape:connector-curvature="0"
   style="fill:#017f9c" />
	
	
	<path
   class="st1"
   d="m 16.9,53.3 -0.2,5.9 c 0,0 0.4,12.3 14,12.3 13.6,0 16.8,-13.8 17.2,-16.3 0.4,-2.4 2,-17.1 -12.8,-17.1 -14.8,0 -17.4,10.7 -18.2,15.2 z"
   id="path248"
   inkscape:connector-curvature="0"
   style="fill:#017f9c" />
</g>
</svg>