<?xml version="1.0" encoding="UTF-8" standalone="no"?>
<!-- Created with Inkscape (http://www.inkscape.org/) -->

<svg
   xmlns:dc="http://purl.org/dc/elements/1.1/"
   xmlns:cc="http://creativecommons.org/ns#"
   xmlns:rdf="http://www.w3.org/1999/02/22-rdf-syntax-ns#"
   xmlns:svg="http://www.w3.org/2000/svg"
   xmlns="http://www.w3.org/2000/svg"
   xmlns:sodipodi="http://sodipodi.sourceforge.net/DTD/sodipodi-0.dtd"
   xmlns:inkscape="http://www.inkscape.org/namespaces/inkscape"
   width="127.37933mm"
   height="127.48272mm"
   viewBox="0 0 127.37933 127.48272"
   version="1.1"
   id="svg8"
   inkscape:version="0.92.3 (2405546, 2018-03-11)"
   sodipodi:docname="kwf.svg">
  <defs
     id="defs2" />
  <sodipodi:namedview
     id="base"
     pagecolor="#ffffff"
     bordercolor="#666666"
     borderopacity="1.0"
     inkscape:pageopacity="0.0"
     inkscape:pageshadow="2"
     inkscape:zoom="1.4"
     inkscape:cx="182.05965"
     inkscape:cy="181.67556"
     inkscape:document-units="mm"
     inkscape:current-layer="layer1"
     showgrid="false"
     fit-margin-top="0"
     fit-margin-left="0"
     fit-margin-right="0"
     fit-margin-bottom="0"
     inkscape:window-width="2560"
     inkscape:window-height="1377"
     inkscape:window-x="-8"
     inkscape:window-y="-8"
     inkscape:window-maximized="1" />
  <metadata
     id="metadata5">
    <rdf:RDF>
      <cc:Work
         rdf:about="">
        <dc:format>image/svg+xml</dc:format>
        <dc:type
           rdf:resource="http://purl.org/dc/dcmitype/StillImage" />
        <dc:title></dc:title>
      </cc:Work>
    </rdf:RDF>
  </metadata>
  <g
     inkscape:label="Layer 1"
     inkscape:groupmode="layer"
     id="layer1"
     transform="translate(-43.552124,-7.3567984)">
    <g
       id="g826">
      <path
         style="fill:#fc0808;stroke-width:0.26458332"
         d="M 101.74368,134.57788 C 96.642823,134.1229 90.155517,132.69301 85.543925,131.00724 81.876657,129.66667 75.493243,126.44713 72.370368,124.36302 62.782537,117.96441 55.516917,109.82661 50.448685,99.809811 44.553718,88.159064 42.44231,75.715072 44.141274,62.635853 47.472582,36.99029 66.302138,15.768062 91.441786,9.3248622 97.347691,7.8111998 100.20122,7.4799268 107.34527,7.4785918 c 4.85837,-9.075e-4 7.03366,0.1104676 9.26041,0.4741362 14.07127,2.298088 26.0184,8.329338 35.72308,18.03401 9.62117,9.621179 15.89109,21.967216 18.00755,35.45849 0.58232,3.71203 0.78613,12.002598 0.39064,15.890526 -1.20553,11.850989 -5.60876,22.903976 -13.06381,32.792806 -2.2362,2.96622 -8.80178,9.44458 -11.94863,11.7899 -8.27693,6.16869 -17.49399,10.1663 -27.46496,11.91205 -3.07755,0.53882 -10.17385,1.19376 -10.40712,0.96049 -0.0784,-0.0784 0.0401,-0.42138 0.26339,-0.76214 0.22328,-0.34077 0.6113,-1.3929 0.86226,-2.33806 0.3955,-1.48949 0.47644,-3.65763 0.60737,-16.27057 l 0.15107,-14.55209 6.74687,-0.15811 c 7.16124,-0.16783 8.08571,-0.3081 11.2481,-1.706653 0.8405,-0.37171 2.03614,-1.025319 2.65697,-1.452459 1.10633,-0.76118 1.14853,-0.768366 2.1225,-0.361416 1.8991,0.793494 8.19914,2.229453 11.12261,2.535158 4.59031,0.48001 7.52498,-0.213026 11.26924,-2.661277 2.35329,-1.53874 4.46282,-3.798919 5.55992,-5.956996 1.05133,-2.068044 1.32702,-5.079169 0.60446,-6.601875 -0.25227,-0.531617 -0.5385,-0.966576 -0.63607,-0.966576 -0.0976,0 -0.38917,0.358524 -0.64802,0.796721 -1.17773,1.993734 -5.16302,5.658745 -8.94876,8.229595 l -1.58822,1.078542 -5.13658,-2.326841 c -2.82511,-1.279763 -5.13657,-2.466628 -5.13657,-2.637478 0,-0.170852 1.9943,-0.989568 4.43178,-1.81937 11.76587,-4.005519 17.96835,-7.91651 20.23434,-12.758806 1.01192,-2.162424 1.16331,-4.546613 0.36616,-5.766493 l -0.50001,-0.76517 -1.4735,1.668756 c -1.67953,1.902095 -4.49735,4.243729 -7.84446,6.518823 -2.24349,1.524947 -2.43416,1.598102 -7.63316,2.92875 -2.9327,0.750604 -5.37388,1.324072 -5.42483,1.274373 -0.22619,-0.220631 0.42555,-0.775417 2.69183,-2.291408 7.2776,-4.868217 12.75381,-9.716423 14.71697,-13.029258 2.35911,-3.981003 2.77552,-8.596318 0.95301,-10.562831 -0.35701,-0.385223 -0.74409,-0.695904 -0.86018,-0.690404 -0.11609,0.0055 -0.77712,1.192985 -1.46896,2.638854 -1.17815,2.462194 -5.05696,8.022836 -6.58449,9.439489 -0.34336,0.318432 -2.76741,1.827673 -5.38679,3.353869 -4.90198,2.856172 -6.14355,3.225721 -4.3417,1.292289 0.50836,-0.545486 1.83993,-1.970545 2.95904,-3.166796 5.69677,-6.08947 8.11547,-10.985359 8.12548,-16.447426 0.005,-2.716183 -0.37467,-4.066841 -1.46935,-5.227542 -1.25373,-1.329343 -1.5329,-1.181166 -1.93986,1.029658 -0.46032,2.500688 -1.76914,6.308979 -3.26129,9.489472 l -1.19362,2.544159 -4.46381,3.615277 c -4.28299,3.468831 -5.39029,4.08468 -3.9885,2.218299 2.76951,-3.6874 3.81934,-8.802735 2.52457,-12.301033 -1.33351,-3.602971 -4.12001,-6.382144 -8.56137,-8.538874 -4.28928,-2.082874 -8.92637,-2.757352 -11.98121,-1.742699 -1.60178,0.532027 -3.23234,2.161114 -3.23234,3.229425 0,0.649443 0.0623,0.685205 0.94432,0.542076 1.74178,-0.282655 7.25777,0.575704 7.25777,1.129403 0,0.334319 -3.35588,1.564722 -4.80765,1.76268 -1.52593,0.208071 -1.45142,0.522042 0.38481,1.621393 2.6785,1.603621 5.43241,1.591181 8.62004,-0.03894 1.23814,-0.633172 1.51517,-0.685898 2.17272,-0.413531 0.97635,0.404419 2.94941,2.520112 3.67307,3.938588 l 0.56709,1.111583 -2.54058,2.404391 c -3.91734,3.70736 -3.42413,3.470367 -5.57684,2.679734 -3.73455,-1.371608 -8.96852,-2.636689 -12.9437,-3.128576 -0.72761,-0.09003 -1.59081,-0.218996 -1.91823,-0.286583 L 109.59422,56.01119 V 44.374562 32.737936 h 2.10192 c 2.57558,0 3.39713,-0.521008 3.63658,-2.306225 l 0.14952,-1.114774 -2.87786,-0.07544 -2.87786,-0.07544 -0.0714,-5.802775 -0.0714,-5.802775 0.78563,-0.811808 c 2.54363,-2.62837 1.97538,-6.828851 -1.12699,-8.3306825 -2.62581,-1.2711325 -5.30762,-0.4657455 -6.91202,2.0757765 -0.60886,0.964508 -0.68999,1.002104 -2.487802,1.152825 -3.391281,0.284313 -7.280564,2.373382 -9.119836,4.89858 -1.511292,2.074904 -2.120117,4.156528 -1.967904,6.728432 0.261,4.410073 2.419085,7.084988 7.027828,8.710894 1.069557,0.377326 2.491036,0.575481 4.884714,0.680934 l 3.37616,0.148735 -0.0689,11.669683 -0.0689,11.669681 -0.92604,0.07472 c -3.316858,0.267634 -10.456446,1.920404 -14.114919,3.26752 l -2.076379,0.764558 -3.01685,-2.81368 c -1.659269,-1.547524 -3.016851,-2.95911 -3.016851,-3.13686 0,-0.723424 2.138542,-3.569846 3.263633,-4.343929 0.658534,-0.453083 1.280334,-0.823788 1.381778,-0.823788 0.101444,0 0.913429,0.356883 1.804414,0.793075 2.082588,1.019559 3.886409,1.353997 5.579469,1.034468 1.618668,-0.305488 3.302887,-1.100394 4.076714,-1.924095 L 97.444084,48.42451 96.174092,48.2741 c -1.372788,-0.162586 -3.906054,-1.029475 -4.695703,-1.606881 -0.440042,-0.321767 -0.297273,-0.404931 1.415883,-0.824761 1.047898,-0.256802 2.971887,-0.478454 4.275529,-0.492562 2.681941,-0.02903 2.842449,-0.191347 1.76712,-1.787033 -1.28511,-1.906974 -4.423883,-2.843048 -7.902141,-2.356649 -10.099971,1.41238 -17.150876,8.568836 -15.842858,16.080023 0.337116,1.935866 1.609534,4.904653 2.915962,6.803483 0.465125,0.676034 0.786363,1.28847 0.713862,1.360971 -0.0725,0.0725 -2.078273,-1.429752 -4.457274,-3.338337 -4.222671,-3.387696 -4.352221,-3.521732 -5.451829,-5.640518 -1.847579,-3.560016 -2.996372,-6.910964 -3.896094,-11.364629 -0.08084,-0.400182 -0.299959,-0.727604 -0.486921,-0.727604 -0.461884,0 -1.855738,1.539925 -2.266534,2.504056 -0.589357,1.383215 -0.662449,4.098031 -0.175207,6.507615 1.020277,5.045628 3.311011,8.695473 9.6812,15.425137 1.281792,1.354127 2.088507,2.407007 1.948479,2.543053 -0.138832,0.134885 -2.34546,-0.977463 -5.26605,-2.654583 -4.840568,-2.779646 -5.088646,-2.962963 -6.686359,-4.940911 -2.585922,-3.201331 -4.241537,-5.705734 -5.384868,-8.145539 -0.578106,-1.233646 -1.153854,-2.242995 -1.279439,-2.242995 -0.125585,0 -0.52303,0.350224 -0.883212,0.778277 -1.880371,2.234692 -1.375253,6.501876 1.27251,10.750037 2.235088,3.586054 6.621203,7.497143 13.821264,12.32439 3.178357,2.130914 4.284017,3.136905 3.042708,2.768425 -0.254661,-0.0756 -2.665677,-0.690002 -5.357812,-1.365345 -4.375569,-1.097645 -5.091255,-1.357157 -6.746875,-2.446452 -3.182076,-2.093608 -6.051547,-4.43113 -7.997768,-6.515123 -1.030724,-1.103691 -1.941782,-2.006709 -2.024573,-2.006709 -0.08279,0 -0.346605,0.379169 -0.586254,0.8426 -0.695033,1.344046 -0.394578,3.967792 0.686673,5.996427 1.733286,3.251978 6.217091,6.678993 12.17088,9.302324 2.295131,1.011272 8.557641,3.349911 11.310938,4.223901 1.8865,0.598837 1.873078,0.609306 -4.383791,3.419152 l -4.846812,2.176613 -1.308708,-0.839798 c -3.209833,-2.059744 -8.211586,-6.624989 -9.133003,-8.335957 -0.270616,-0.502502 -0.613372,-0.874324 -0.76168,-0.826267 -0.622087,0.201567 -1.06296,1.688743 -1.047556,3.533666 0.01371,1.641406 0.149702,2.168705 1.0064,3.902118 1.707055,3.45399 5.379958,6.525577 9.693379,8.106407 3.4754,1.273708 10.528839,0.606306 17.112834,-1.619226 l 2.256695,-0.762812 0.867347,0.661556 c 1.182303,0.901787 3.726158,2.108462 5.598337,2.65556 1.199234,0.35045 3.073162,0.48843 8.296037,0.61083 l 6.746872,0.15811 0.15875,13.75834 c 0.0924,8.0045 0.27785,14.38015 0.44354,15.2452 0.44148,2.30494 0.80665,3.50968 1.23597,4.07756 0.77203,1.02119 0.63753,1.04233 -4.00026,0.62864 z m 2.35733,-62.880048 0.0693,-10.252604 2.71198,-0.0754 2.71197,-0.0754 v 10.328008 10.328005 h -2.78123 -2.78123 z m -3.46776,-42.684597 c -2.808129,-0.55187 -4.747107,-2.180526 -5.466416,-4.59155 -1.403276,-4.703575 1.096372,-8.873589 5.597606,-9.338158 1.16572,-0.120312 1.42145,-0.07357 1.42145,0.259776 0,0.223565 0.41672,0.772366 0.92604,1.219558 l 0.92604,0.813075 v 5.961209 5.961208 l -1.12447,-0.02899 c -0.61847,-0.01594 -1.64458,-0.131201 -2.28025,-0.256128 z"
         id="path830"
         inkscape:connector-curvature="0" />
      <path
         style="fill:#0153a2;stroke-width:0.26458332"
         d="M 101.74368,134.57788 C 96.642823,134.1229 90.155517,132.69301 85.543925,131.00724 81.876657,129.66667 75.493243,126.44713 72.370368,124.36302 62.782537,117.96441 55.516917,109.82661 50.448685,99.809811 39.95111,79.062525 41.523791,54.474335 54.57789,35.251478 65.748165,18.802651 83.984518,8.4913728 103.78865,7.4265133 c 2.19551,-0.1180514 3.18973,-0.086564 3.07602,0.097418 -0.0924,0.1495166 -0.59869,0.3417377 -1.12508,0.4271581 -1.18841,0.1928531 -2.58208,1.2322642 -3.40933,2.5427076 -0.60886,0.964508 -0.68999,1.002104 -2.487802,1.152825 -3.391281,0.284312 -7.280564,2.373382 -9.119836,4.898579 -1.511292,2.074904 -2.120117,4.156528 -1.967904,6.728433 0.261,4.410073 2.419085,7.084988 7.027828,8.710894 1.069557,0.377326 2.491036,0.575481 4.884714,0.680933 l 3.37616,0.148736 -0.0689,11.669682 -0.0689,11.669681 -0.92604,0.07472 c -3.316858,0.267634 -10.456446,1.920404 -14.114919,3.26752 l -2.076379,0.764558 -3.01685,-2.81368 c -1.659269,-1.547524 -3.016851,-2.95911 -3.016851,-3.13686 0,-0.723424 2.138542,-3.569846 3.263633,-4.343929 0.658534,-0.453083 1.280334,-0.823788 1.381778,-0.823788 0.101444,0 0.913429,0.356883 1.804414,0.793075 2.082588,1.019559 3.886409,1.353997 5.579469,1.034468 1.618668,-0.305488 3.302887,-1.100394 4.076714,-1.924095 L 97.444084,48.42451 96.174092,48.2741 c -1.372788,-0.162586 -3.906054,-1.029475 -4.695703,-1.606881 -0.440042,-0.321767 -0.297273,-0.404931 1.415883,-0.824761 1.047898,-0.256802 2.971887,-0.478454 4.275529,-0.492562 2.681941,-0.02903 2.842449,-0.191347 1.76712,-1.787033 -1.28511,-1.906974 -4.423883,-2.843048 -7.902141,-2.356649 -10.099971,1.41238 -17.150876,8.568836 -15.842858,16.080023 0.337116,1.935866 1.609534,4.904653 2.915962,6.803483 0.465125,0.676034 0.786363,1.28847 0.713862,1.360971 -0.0725,0.0725 -2.078273,-1.429752 -4.457274,-3.338337 -4.222671,-3.387696 -4.352221,-3.521732 -5.451829,-5.640518 -1.847579,-3.560016 -2.996372,-6.910964 -3.896094,-11.364629 -0.08084,-0.400182 -0.299959,-0.727604 -0.486921,-0.727604 -0.461884,0 -1.855738,1.539925 -2.266534,2.504056 -0.589357,1.383215 -0.662449,4.098031 -0.175207,6.507615 1.020277,5.045628 3.311011,8.695473 9.6812,15.425137 1.281792,1.354127 2.088507,2.407007 1.948479,2.543053 -0.138832,0.134885 -2.34546,-0.977463 -5.26605,-2.654583 -4.840568,-2.779646 -5.088646,-2.962963 -6.686359,-4.940911 -2.585922,-3.201331 -4.241537,-5.705734 -5.384868,-8.145539 -0.578106,-1.233646 -1.153854,-2.242995 -1.279439,-2.242995 -0.125585,0 -0.52303,0.350224 -0.883212,0.778277 -1.880371,2.234692 -1.375253,6.501876 1.27251,10.750037 2.235088,3.586054 6.621203,7.497143 13.821264,12.32439 3.178357,2.130914 4.284017,3.136905 3.042708,2.768425 -0.254661,-0.0756 -2.665677,-0.690002 -5.357812,-1.365345 -4.375569,-1.097645 -5.091255,-1.357157 -6.746875,-2.446452 -3.182076,-2.093608 -6.051547,-4.43113 -7.997768,-6.515123 -1.030724,-1.103691 -1.941782,-2.006709 -2.024573,-2.006709 -0.08279,0 -0.346605,0.379169 -0.586254,0.8426 -0.695033,1.344046 -0.394578,3.967792 0.686673,5.996427 1.733286,3.251978 6.217091,6.678993 12.17088,9.302324 2.295131,1.011272 8.557641,3.349911 11.310938,4.223901 1.8865,0.598837 1.873078,0.609306 -4.383791,3.419152 l -4.846812,2.176613 -1.308708,-0.839798 c -3.209833,-2.059744 -8.211586,-6.624989 -9.133003,-8.335957 -0.270616,-0.502502 -0.613372,-0.874324 -0.76168,-0.826267 -0.622087,0.201567 -1.06296,1.688743 -1.047556,3.533666 0.01371,1.641406 0.149702,2.168705 1.0064,3.902118 1.707055,3.45399 5.379958,6.525577 9.693379,8.106407 3.4754,1.273708 10.528839,0.606306 17.112834,-1.619226 l 2.256695,-0.762812 0.867347,0.661556 c 1.182303,0.901787 3.726158,2.108462 5.598337,2.65556 1.199234,0.35045 3.073162,0.48843 8.296037,0.61083 l 6.746872,0.15811 0.15875,13.75834 c 0.0924,8.0045 0.27785,14.38015 0.44354,15.2452 0.44148,2.30494 0.80665,3.50968 1.23597,4.07756 0.77203,1.02119 0.63753,1.04233 -4.00026,0.62864 z M 100.63325,29.013235 c -2.808129,-0.55187 -4.747107,-2.180526 -5.466416,-4.59155 -1.403276,-4.703575 1.096372,-8.873589 5.597606,-9.338158 1.16572,-0.120312 1.42145,-0.07357 1.42145,0.259776 0,0.223565 0.41672,0.772366 0.92604,1.219558 l 0.92604,0.813075 v 5.961209 5.961208 l -1.12447,-0.02899 c -0.61847,-0.01594 -1.64458,-0.131201 -2.28025,-0.256128 z"
         id="path828"
         inkscape:connector-curvature="0" />
    </g>
  </g>
</svg>
